<?xml version="1.0" encoding="iso-8859-1"?>
<!-- Generator: Adobe Illustrator 19.0.0, SVG Export Plug-In . SVG Version: 6.00 Build 0)  -->
<svg version="1.1" id="Layer_1" xmlns="http://www.w3.org/2000/svg" xmlns:xlink="http://www.w3.org/1999/xlink" x="0px" y="0px"
	 viewBox="0 0 512 512" style="enable-background:new 0 0 512 512;" xml:space="preserve">
<path style="fill:#FFFFFF;" d="M128,504c-4.056,0-7.36-3.304-7.36-7.36V15.36c0-4.056,3.304-7.36,7.36-7.36h256
	c4.056,0,7.36,3.304,7.36,7.36v481.28c0,4.056-3.304,7.36-7.36,7.36H128z"/>
<path d="M383.36,16v480H128.64V16H383.36 M384,0H128c-8.448,0-15.36,6.912-15.36,15.36v481.28c0,8.448,6.912,15.36,15.36,15.36h256
	c8.448,0,15.36-6.912,15.36-15.36V15.36C399.36,6.912,392.448,0,384,0L384,0z"/>
<g>
	<path style="fill:#C9C9C9;" d="M292.384,468.696h-72.768c-4.432,0-8.064-3.632-8.064-8.064l0,0c0-4.432,3.632-8.064,8.064-8.064
		h72.768c4.432,0,8.064,3.632,8.064,8.064l0,0C300.448,465.072,296.824,468.696,292.384,468.696z"/>
	<path style="fill:#C9C9C9;" d="M292.384,59.512h-72.768c-4.432,0-8.064-3.632-8.064-8.064l0,0c0-4.432,3.632-8.064,8.064-8.064
		h72.768c4.432,0,8.064,3.632,8.064,8.064l0,0C300.448,55.888,296.824,59.512,292.384,59.512z"/>
</g>
<g>
	<path style="fill:#E21B1B;" d="M173.736,364.752c0-2.464,0.264-4.64,0.792-6.544c0.52-1.896,1.256-3.576,2.184-5.024
		c0.936-1.44,2.048-2.68,3.328-3.712c1.272-1.04,2.656-1.928,4.136-2.688v-0.392c-1.088-0.592-2.168-1.328-3.272-2.208
		c-1.104-0.888-2.096-1.976-2.976-3.272c-0.888-1.296-1.608-2.832-2.168-4.576c-0.552-1.76-0.832-3.768-0.832-6.032V324.4
		c0-2.728,0.328-5.088,0.984-7.096c0.656-2,1.52-3.704,2.584-5.12c1.072-1.408,2.304-2.544,3.72-3.424
		c1.408-0.864,2.856-1.544,4.352-2.04s2.992-0.824,4.488-0.984s2.856-0.248,4.112-0.248c1.28,0,2.656,0.088,4.136,0.248
		c1.48,0.16,2.968,0.496,4.48,0.984c1.512,0.496,2.96,1.168,4.36,2.04c1.392,0.872,2.632,2.008,3.72,3.4
		c1.08,1.4,1.952,3.096,2.608,5.096s0.984,4.368,0.984,7.088v5.904c0,2.264-0.28,4.28-0.84,6.032
		c-0.552,1.76-1.272,3.28-2.168,4.576c-0.88,1.296-1.872,2.392-2.976,3.272c-1.104,0.888-2.184,1.624-3.272,2.216v0.392
		c1.504,0.76,2.896,1.648,4.16,2.688c1.264,1.032,2.368,2.264,3.304,3.712c0.928,1.448,1.664,3.12,2.184,5.024
		c0.52,1.896,0.792,4.088,0.792,6.544v5.168c0,2.888-0.296,5.416-0.888,7.584c-0.584,2.168-1.4,4.032-2.432,5.608
		c-1.04,1.568-2.24,2.864-3.624,3.888c-1.376,1.016-2.856,1.832-4.456,2.432c-1.592,0.608-3.248,1.04-4.968,1.28
		c-1.728,0.248-3.44,0.376-5.144,0.376c-1.712,0-3.416-0.128-5.128-0.376c-1.704-0.24-3.352-0.664-4.944-1.248
		c-1.592-0.592-3.08-1.408-4.456-2.44c-1.384-1.04-2.568-2.328-3.568-3.888c-1-1.552-1.8-3.424-2.384-5.584
		c-0.592-2.168-0.888-4.696-0.888-7.576v-5.176H173.736z M186.68,370.952c0,2.136,0.24,3.88,0.72,5.24
		c0.472,1.36,1.096,2.432,1.864,3.192c0.776,0.776,1.664,1.304,2.68,1.6s2.072,0.448,3.16,0.448c1.08,0,2.144-0.152,3.168-0.448
		c1.024-0.296,1.944-0.832,2.736-1.624c0.784-0.784,1.424-1.856,1.912-3.216c0.496-1.368,0.744-3.112,0.744-5.24v-9.256
		c0-1.832-0.184-3.408-0.568-4.704c-0.376-1.288-0.904-2.36-1.592-3.192c-0.696-0.832-1.528-1.448-2.512-1.824
		c-0.984-0.376-2.064-0.568-3.248-0.568h-1.224c-2.4,0-4.296,0.832-5.712,2.496c-1.416,1.656-2.12,4.272-2.12,7.84v9.256H186.68z
		 M195.736,342.256c0.952,0,1.848-0.16,2.688-0.472s1.56-0.84,2.184-1.6c0.624-0.752,1.12-1.776,1.48-3.048
		c0.36-1.28,0.536-2.888,0.536-4.832v-6.936c0-3.48-0.576-6.128-1.744-7.928s-3.08-2.704-5.736-2.704s-4.552,0.912-5.688,2.76
		c-1.136,1.832-1.696,4.496-1.696,7.968v6.888c0,1.872,0.16,3.44,0.472,4.704c0.304,1.264,0.76,2.28,1.352,3.056
		c0.584,0.768,1.304,1.32,2.144,1.648s1.784,0.496,2.832,0.496H195.736z"/>
	<path style="fill:#E21B1B;" d="M225.912,330.24c0-3.672,0.336-6.84,1.008-9.52c0.672-2.672,1.552-4.92,2.656-6.744
		s2.368-3.288,3.816-4.408c1.448-1.112,2.928-1.976,4.456-2.576c1.528-0.608,3.056-1.016,4.576-1.208
		c1.528-0.192,2.928-0.296,4.208-0.296c1.208,0,2.568,0.096,4.064,0.272s3,0.552,4.52,1.136c1.528,0.568,3.008,1.416,4.432,2.504
		c1.432,1.104,2.696,2.568,3.8,4.408c1.096,1.832,1.984,4.104,2.656,6.8c0.672,2.688,1.008,5.904,1.008,9.64v35.536
		c0,3.68-0.336,6.848-1.008,9.528c-0.672,2.672-1.568,4.944-2.688,6.816c-1.112,1.872-2.392,3.392-3.832,4.552
		s-2.92,2.072-4.432,2.704c-1.504,0.64-3.008,1.08-4.504,1.304c-1.504,0.232-2.832,0.352-4.016,0.352
		c-1.312,0-2.744-0.12-4.28-0.352c-1.544-0.224-3.088-0.664-4.624-1.304c-1.544-0.632-3.032-1.528-4.464-2.68
		c-1.424-1.152-2.68-2.656-3.768-4.528c-1.08-1.864-1.944-4.152-2.6-6.832c-0.664-2.696-0.984-5.872-0.984-9.552
		C225.912,365.792,225.912,330.24,225.912,330.24z M238.952,371.152c0,3.48,0.632,6.008,1.896,7.576
		c1.256,1.576,3.184,2.368,5.784,2.368c2.52,0,4.416-0.792,5.664-2.368c1.24-1.568,1.864-4.104,1.864-7.576v-45.528
		c0-3.672-0.624-6.352-1.864-8.024c-1.248-1.672-3.144-2.504-5.664-2.504c-2.592,0-4.52,0.832-5.784,2.504
		c-1.264,1.672-1.896,4.352-1.896,8.024C238.952,325.624,238.952,371.152,238.952,371.152z"/>
	<path style="fill:#E21B1B;" d="M290.272,342.448c-1.424,0-2.856-0.192-4.296-0.6c-1.448-0.4-2.744-1.176-3.904-2.344
		s-2.112-2.824-2.832-4.96s-1.096-4.952-1.096-8.44v-4.016c0-2.28,0.176-4.248,0.52-5.912c0.352-1.672,0.832-3.096,1.456-4.264
		c0.608-1.176,1.32-2.136,2.12-2.856c0.808-0.728,1.656-1.288,2.552-1.688c0.904-0.4,1.832-0.68,2.768-0.832s1.856-0.224,2.76-0.224
		c0.848,0,1.744,0.072,2.672,0.208c0.92,0.136,1.832,0.408,2.72,0.808s1.736,0.96,2.536,1.672c0.8,0.712,1.504,1.656,2.104,2.832
		s1.08,2.608,1.432,4.28c0.352,1.68,0.52,3.672,0.52,5.976v4.016c0,3.44-0.392,6.216-1.168,8.36
		c-0.776,2.152-1.76,3.808-2.944,4.984c-1.192,1.168-2.496,1.968-3.904,2.384C292.856,342.24,291.528,342.448,290.272,342.448z
		 M290.352,336.48c1.576,0,2.68-0.688,3.304-2.048c0.624-1.368,0.936-3.496,0.936-6.368v-7.288c0-2.904-0.312-5.048-0.936-6.432
		c-0.624-1.376-1.728-2.064-3.304-2.064c-1.656,0-2.816,0.688-3.48,2.064c-0.664,1.384-0.992,3.52-0.992,6.432v7.288
		c0,2.872,0.328,5,0.992,6.368C287.536,335.792,288.696,336.48,290.352,336.48z M313.048,307.096h6.8l-17.24,64.88h-6.832
		L313.048,307.096z M313.112,352.176c0-3.432,0.384-6.176,1.152-8.248c0.768-2.064,1.744-3.656,2.928-4.768
		c1.184-1.12,2.496-1.856,3.92-2.216c1.432-0.368,2.808-0.544,4.136-0.544c0.848,0,1.744,0.072,2.672,0.208
		c0.92,0.136,1.832,0.408,2.72,0.808c0.888,0.4,1.736,0.96,2.536,1.672s1.504,1.656,2.104,2.832s1.08,2.6,1.432,4.28
		s0.52,3.672,0.52,5.976v4.016c0,2.304-0.176,4.312-0.536,6.016c-0.368,1.704-0.848,3.16-1.472,4.36
		c-0.608,1.192-1.32,2.184-2.128,2.96c-0.8,0.784-1.64,1.392-2.528,1.84s-1.8,0.76-2.728,0.92c-0.92,0.168-1.808,0.24-2.624,0.24
		c-0.952,0-1.912-0.08-2.872-0.24c-0.968-0.168-1.888-0.464-2.784-0.88c-0.888-0.432-1.728-1.032-2.512-1.808
		s-1.48-1.768-2.048-2.968c-0.576-1.2-1.04-2.656-1.376-4.376s-0.504-3.744-0.504-6.072v-4.008H313.112z M320.816,358.152
		c0,2.88,0.328,5.008,0.992,6.368c0.664,1.368,1.832,2.056,3.48,2.056c1.576,0,2.68-0.688,3.304-2.056
		c0.632-1.36,0.944-3.488,0.944-6.368v-7.288c0-2.896-0.312-5.048-0.944-6.424c-0.624-1.376-1.728-2.064-3.304-2.064
		c-1.648,0-2.816,0.688-3.48,2.064s-0.992,3.52-0.992,6.424V358.152z"/>
</g>
<path d="M174.464,192.408l18.552-35.736c1.704-3.248,3.096-6.088,4.16-8.512c1.072-2.432,1.904-4.552,2.512-6.376
	c0.6-1.824,1.024-3.4,1.248-4.752c0.232-1.344,0.344-2.552,0.344-3.64c0-1.704-0.16-3.144-0.464-4.304
	c-0.312-1.168-0.776-2.104-1.384-2.808c-0.608-0.712-1.36-1.208-2.264-1.504c-0.896-0.296-1.944-0.448-3.128-0.448
	c-2.88,0-4.976,1.184-6.272,3.568c-1.296,2.376-1.944,5.8-1.944,10.256v4.776h-9.84c-0.36-1.832-0.672-3.512-0.936-5.04
	c-0.256-1.528-0.392-3.192-0.392-5c0-2.136,0.368-4.256,1.112-6.376c0.736-2.12,1.888-4.024,3.472-5.736
	c1.568-1.704,3.584-3.088,6.032-4.136c2.44-1.048,5.368-1.576,8.784-1.576c3.68,0,6.824,0.432,9.432,1.28s4.752,2.104,6.424,3.744
	s2.896,3.64,3.664,6.008c0.776,2.36,1.16,5.032,1.16,8.024c0,1.704-0.16,3.384-0.464,5.04c-0.312,1.664-0.832,3.432-1.552,5.32
	c-0.72,1.88-1.656,3.944-2.808,6.176c-1.152,2.224-2.56,4.792-4.232,7.672l-16.584,31.504h24.56v10.04H174.48v-7.464H174.464z"/>
<path d="M223.448,139.832c0-3.672,0.336-6.84,1.008-9.52c0.672-2.672,1.552-4.92,2.656-6.744s2.368-3.288,3.816-4.408
	c1.448-1.112,2.928-1.976,4.456-2.576c1.528-0.608,3.056-1.016,4.576-1.208c1.528-0.192,2.928-0.296,4.208-0.296
	c1.208,0,2.568,0.096,4.064,0.272s3,0.552,4.52,1.136c1.528,0.568,3.008,1.416,4.432,2.504c1.432,1.104,2.696,2.568,3.8,4.408
	c1.096,1.832,1.984,4.104,2.656,6.8c0.672,2.688,1.008,5.904,1.008,9.64v35.536c0,3.68-0.336,6.848-1.008,9.528
	c-0.672,2.672-1.568,4.944-2.688,6.816c-1.112,1.872-2.392,3.392-3.832,4.552s-2.92,2.072-4.432,2.704
	c-1.504,0.64-3.008,1.08-4.496,1.304c-1.504,0.232-2.832,0.352-4.016,0.352c-1.312,0-2.744-0.12-4.28-0.352
	c-1.544-0.224-3.088-0.664-4.624-1.304c-1.544-0.632-3.032-1.528-4.464-2.68c-1.424-1.152-2.68-2.656-3.768-4.528
	c-1.08-1.864-1.944-4.152-2.6-6.832c-0.664-2.696-0.984-5.872-0.984-9.552L223.448,139.832L223.448,139.832z M236.48,180.744
	c0,3.48,0.632,6.008,1.896,7.576c1.256,1.576,3.184,2.368,5.784,2.368c2.52,0,4.416-0.792,5.664-2.368
	c1.24-1.568,1.864-4.104,1.864-7.576v-45.528c0-3.672-0.624-6.352-1.864-8.024c-1.248-1.672-3.144-2.504-5.664-2.504
	c-2.592,0-4.52,0.832-5.784,2.504s-1.896,4.352-1.896,8.024V180.744z"/>
<path d="M287.8,152.04c-1.424,0-2.856-0.192-4.296-0.6c-1.448-0.4-2.744-1.176-3.904-2.344s-2.112-2.824-2.832-4.96
	s-1.096-4.952-1.096-8.44v-4.016c0-2.28,0.176-4.248,0.52-5.912c0.352-1.672,0.832-3.096,1.456-4.264
	c0.608-1.176,1.32-2.136,2.12-2.856c0.808-0.728,1.656-1.288,2.552-1.688c0.904-0.4,1.832-0.68,2.768-0.832s1.856-0.224,2.76-0.224
	c0.848,0,1.744,0.072,2.672,0.208c0.92,0.136,1.832,0.408,2.72,0.808s1.736,0.96,2.536,1.672c0.8,0.712,1.504,1.656,2.104,2.832
	s1.08,2.608,1.432,4.28c0.352,1.68,0.52,3.672,0.52,5.976v4.016c0,3.44-0.392,6.216-1.168,8.36c-0.776,2.152-1.76,3.808-2.944,4.984
	c-1.192,1.168-2.496,1.968-3.904,2.384C290.392,151.832,289.064,152.04,287.8,152.04z M287.88,146.072
	c1.576,0,2.68-0.688,3.304-2.048c0.624-1.368,0.936-3.496,0.936-6.368v-7.288c0-2.904-0.312-5.048-0.936-6.432
	c-0.624-1.376-1.728-2.064-3.304-2.064c-1.656,0-2.816,0.688-3.48,2.064c-0.664,1.384-0.992,3.52-0.992,6.432v7.288
	c0,2.872,0.328,5,0.992,6.368C285.072,145.384,286.224,146.072,287.88,146.072z M310.576,116.688h6.8l-17.24,64.88h-6.832
	L310.576,116.688z M310.648,161.776c0-3.432,0.384-6.176,1.152-8.248c0.768-2.064,1.744-3.656,2.928-4.768
	c1.184-1.12,2.496-1.856,3.92-2.216c1.432-0.368,2.808-0.544,4.136-0.544c0.848,0,1.744,0.072,2.672,0.208
	c0.92,0.136,1.832,0.408,2.72,0.808s1.736,0.96,2.536,1.672s1.504,1.656,2.104,2.832s1.08,2.6,1.432,4.28s0.52,3.672,0.52,5.976
	v4.016c0,2.304-0.176,4.312-0.536,6.016c-0.368,1.704-0.848,3.16-1.472,4.36c-0.608,1.192-1.32,2.184-2.128,2.96
	c-0.8,0.784-1.64,1.392-2.528,1.84s-1.8,0.76-2.728,0.92c-0.92,0.168-1.808,0.24-2.624,0.24c-0.952,0-1.912-0.08-2.872-0.24
	c-0.968-0.168-1.888-0.464-2.784-0.88c-0.888-0.432-1.728-1.032-2.512-1.808s-1.48-1.768-2.048-2.968
	c-0.576-1.2-1.04-2.656-1.376-4.376s-0.504-3.744-0.504-6.072v-4.008L310.648,161.776L310.648,161.776z M318.352,167.744
	c0,2.88,0.328,5.008,0.992,6.368c0.664,1.368,1.832,2.056,3.48,2.056c1.576,0,2.68-0.688,3.304-2.056
	c0.632-1.36,0.944-3.488,0.944-6.368v-7.288c0-2.896-0.312-5.048-0.944-6.424c-0.624-1.376-1.728-2.064-3.304-2.064
	c-1.648,0-2.816,0.688-3.48,2.064s-0.992,3.52-0.992,6.424V167.744z"/>
<rect x="153.594" y="237.981" transform="matrix(-0.957 0.29 -0.29 -0.957 572.3325 407.148)" width="204.811" height="16"/>
<g>
</g>
<g>
</g>
<g>
</g>
<g>
</g>
<g>
</g>
<g>
</g>
<g>
</g>
<g>
</g>
<g>
</g>
<g>
</g>
<g>
</g>
<g>
</g>
<g>
</g>
<g>
</g>
<g>
</g>
</svg>
